<svg width="0" height="0" class="hidden">
  <symbol xmlns="http://www.w3.org/2000/svg" viewBox="-0.26 0 33.549 33.549" id="choose">
    <g transform="translate(-607.873 -577.167)">
      <path d="M638.546,610.716a1,1,0,0,1-.942-1.334c1.785-5.044,1.745-8.637-.12-10.679-3.26-3.568-11.186-1.6-11.266-1.574l-1.247.318V586l.016-.087a3.188,3.188,0,0,0-.274-2.085.7.7,0,0,0-.609-.226.774.774,0,0,0-.657.247,3.155,3.155,0,0,0-.346,2.033l.011.144v15.115l-1.155-.18c-1.766-.279-2.336.02-2.408.158-.459.9,2.05,4.66,5.264,7.888a1,1,0,0,1-1.418,1.412c-1.681-1.689-7.053-7.412-5.627-10.208.645-1.265,2.182-1.425,3.344-1.359V586.094a4.926,4.926,0,0,1,.822-3.55,2.768,2.768,0,0,1,2.17-.939,2.678,2.678,0,0,1,2.144.944,4.94,4.94,0,0,1,.723,3.624v8.757c2.643-.466,8.781-1.085,11.987,2.42,2.406,2.629,2.585,6.9.532,12.7A1,1,0,0,1,638.546,610.716Z"></path>
      <path d="M612.733,586.792a2.2,2.2,0,0,1-1.562-.646l-3.005-3.005a1,1,0,0,1,1.414-1.414l3.006,3.005a.211.211,0,0,0,.3,0l6.522-6.521a1,1,0,0,1,1.414,1.414l-6.523,6.522A2.2,2.2,0,0,1,612.733,586.792Z"></path>
      <path d="M639.392,587.543a1,1,0,0,1-.707-.293l-8.376-8.376a1,1,0,0,1,1.414-1.414l8.376,8.376a1,1,0,0,1-.707,1.707Z"></path>
      <path d="M631.016,587.543a1,1,0,0,1-.707-1.707l8.376-8.376a1,1,0,0,1,1.414,1.414l-8.376,8.376A1,1,0,0,1,631.016,587.543Z"></path>
    </g>
  </symbol>
  <symbol version="1.1" xmlns="http://www.w3.org/2000/svg" xmlns:xlink="http://www.w3.org/1999/xlink" enable-background="new 0 0 187.852 187.852" viewBox="0 0 187.852 187.852" id="clock">
    <g>
      <path d="m185.975,75.172c-0.661-3.247-3.826-5.339-7.077-4.682-0.432,0.088-0.843,0.223-1.23,0.395-2.524,1.115-4.025,3.867-3.452,6.682 6.364,31.255-6.146,63.636-31.873,82.495-17.538,12.856-39.179,18.089-60.937,14.739-21.758-3.352-40.821-14.856-53.677-32.395-26.73-36.468-18.81-87.883 17.656-114.615 17.538-12.855 39.18-18.088 60.937-14.739 21.13,3.255 39.701,14.217 52.531,30.91l-5.516-.793c-3.283-0.474-6.322,1.805-6.793,5.085-0.472,3.28 1.805,6.321 5.085,6.793l19.915,2.864c0.132,0.019 0.262,0.018 0.394,0.028 0.156,0.012 0.313,0.034 0.468,0.034 2.936,0 5.501-2.157 5.932-5.147l2.864-19.915c0.472-3.28-1.805-6.321-5.085-6.793-3.281-0.473-6.321,1.805-6.793,5.085l-.811,5.639c-14.725-19.262-36.074-31.909-60.363-35.65-24.925-3.842-49.735,2.17-69.858,16.92-20.124,14.753-33.322,36.604-37.161,61.529-3.839,24.926 2.169,49.735 16.921,69.859 14.751,20.123 36.602,33.32 61.528,37.16 4.914,0.757 9.821,1.131 14.691,1.131 19.833,0 39.012-6.209 55.167-18.052 29.49-21.618 43.832-58.738 36.537-94.567z"></path>
      <path d="m126.601,96.171h-20.48c-1.502-3.399-4.234-6.132-7.633-7.633v-46.034c0-3.313-2.687-6-6-6s-6,2.687-6,6v46.034c-5.236,2.314-8.904,7.55-8.904,13.633 0,8.218 6.686,14.904 14.904,14.904 6.083,0 11.319-3.668 13.633-8.904h20.48c3.313,0 6-2.687 6-6s-2.687-6-6-6zm-37.018,6c0-1.602 1.303-2.905 2.904-2.905s2.905,1.303 2.905,2.905-1.303,2.904-2.905,2.904-2.904-1.303-2.904-2.904z"></path>
    </g>
  </symbol>
  <symbol version="1.1" id="computer" xmlns="http://www.w3.org/2000/svg" xmlns:xlink="http://www.w3.org/1999/xlink" x="0px" y="0px" xml:space="preserve" viewBox="0 0 489.989 489.989">
    <g>
      <g>
        <g>
          <path d="M489.989,34.453H0v306.243h213.641l-6.264,68.905H176.09c-12.665,0-22.968,10.303-22.968,22.968
				s10.303,22.968,22.968,22.968h137.809c12.665,0,22.968-10.303,22.968-22.968c0-12.665-10.303-22.968-22.968-22.968h-31.287
				l-6.264-68.905h213.641V34.453z M313.899,424.913c4.221,0,7.656,3.436,7.656,7.656c0,4.221-3.436,7.656-7.656,7.656H176.09
				c-4.221,0-7.656-3.435-7.656-7.656c0-4.22,3.436-7.656,7.656-7.656H313.899z M222.755,409.6l6.264-68.905h31.95l6.265,68.905
				H222.755z M474.677,325.384H15.312V49.764h459.365V325.384z"></path>
          <rect x="38.28" y="294.759" width="99.529" height="15.312"></rect>
          <rect x="153.122" y="294.759" width="15.312" height="15.312"></rect>
          <rect x="183.746" y="294.759" width="15.312" height="15.312"></rect>
          <rect x="214.37" y="294.759" width="15.312" height="15.312"></rect>
          <rect x="279.45" y="100.302" transform="matrix(0.7071 0.7071 -0.7071 0.7071 208.6078 -151.4375)" width="15.31" height="151.582"></rect>
          <rect x="317.728" y="177.408" transform="matrix(-0.7071 -0.7071 0.7071 -0.7071 414.7066 569.9017)" width="15.311" height="43.309"></rect>
          <rect x="388.547" y="71.401" transform="matrix(0.7071 0.7071 -0.7071 0.7071 206.7273 -242.5955)" width="15.31" height="113.686"></rect>
          <rect x="229.682" y="65.078" width="30.624" height="15.312"></rect>
        </g>
      </g>
    </g>
    <g></g>
    <g></g>
    <g></g>
    <g></g>
    <g></g>
    <g></g>
    <g></g>
    <g></g>
    <g></g>
    <g></g>
    <g></g>
    <g></g>
    <g></g>
    <g></g>
    <g></g>
  </symbol>
  <symbol xmlns="http://www.w3.org/2000/svg" viewBox="0 0 512 512" id="fingerprint">
    <title>ionicons-v5-i</title>
    <path d="M390.42,75.28a10.45,10.45,0,0,1-5.32-1.44C340.72,50.08,302.35,40,256.35,40c-45.77,0-89.23,11.28-128.76,33.84C122,77,115.11,74.8,111.87,69a12.4,12.4,0,0,1,4.63-16.32A281.81,281.81,0,0,1,256.35,16c49.23,0,92.23,11.28,139.39,36.48a12,12,0,0,1,4.85,16.08A11.3,11.3,0,0,1,390.42,75.28Zm-330.79,126a11.73,11.73,0,0,1-6.7-2.16,12.26,12.26,0,0,1-2.78-16.8c22.89-33.6,52-60,86.69-78.48C209.42,65,302.35,64.72,375.16,103.6c34.68,18.48,63.8,44.64,86.69,78a12.29,12.29,0,0,1-2.78,16.8,11.26,11.26,0,0,1-16.18-2.88c-20.8-30.24-47.15-54-78.36-70.56-66.34-35.28-151.18-35.28-217.29.24-31.44,16.8-57.79,40.8-78.59,71A10,10,0,0,1,59.63,201.28ZM204.1,491a10.66,10.66,0,0,1-8.09-3.6C175.9,466.48,165,453,149.55,424c-16-29.52-24.27-65.52-24.27-104.16,0-71.28,58.71-129.36,130.84-129.36S387,248.56,387,319.84a11.56,11.56,0,1,1-23.11,0c0-58.08-48.32-105.36-107.72-105.36S148.4,261.76,148.4,319.84c0,34.56,7.39,66.48,21.49,92.4,14.8,27.6,25,39.36,42.77,58.08a12.67,12.67,0,0,1,0,17A12.44,12.44,0,0,1,204.1,491Zm165.75-44.4c-27.51,0-51.78-7.2-71.66-21.36a129.1,129.1,0,0,1-55-105.36,11.57,11.57,0,1,1,23.12,0,104.28,104.28,0,0,0,44.84,85.44c16.41,11.52,35.6,17,58.72,17a147.41,147.41,0,0,0,24-2.4c6.24-1.2,12.25,3.12,13.4,9.84a11.92,11.92,0,0,1-9.47,13.92A152.28,152.28,0,0,1,369.85,446.56ZM323.38,496a13,13,0,0,1-3-.48c-36.76-10.56-60.8-24.72-86-50.4-32.37-33.36-50.16-77.76-50.16-125.28,0-38.88,31.9-70.56,71.19-70.56s71.2,31.68,71.2,70.56c0,25.68,21.5,46.56,48.08,46.56s48.08-20.88,48.08-46.56c0-90.48-75.13-163.92-167.59-163.92-65.65,0-125.75,37.92-152.79,96.72-9,19.44-13.64,42.24-13.64,67.2,0,18.72,1.61,48.24,15.48,86.64,2.32,6.24-.69,13.2-6.7,15.36a11.34,11.34,0,0,1-14.79-7,276.39,276.39,0,0,1-16.88-95c0-28.8,5.32-55,15.72-77.76,30.75-67,98.94-110.4,173.6-110.4,105.18,0,190.71,84.24,190.71,187.92,0,38.88-31.9,70.56-71.2,70.56s-71.2-31.68-71.2-70.56C303.5,293.92,282,273,255.42,273s-48.08,20.88-48.08,46.56c0,41,15.26,79.44,43.23,108.24,22,22.56,43,35,75.59,44.4,6.24,1.68,9.71,8.4,8.09,14.64A11.39,11.39,0,0,1,323.38,496Z"></path>
  </symbol>
  <symbol version="1.1" xmlns="http://www.w3.org/2000/svg" xmlns:xlink="http://www.w3.org/1999/xlink" enable-background="new 0 0 512 512" viewBox="0 0 512 512" id="growth">
    <g>
      <g>
        <path d="m266.1,237.1h-82.2c-6.2,0-10.4,5.2-10.4,10.4v243c0,6.3 5.2,10.4 10.4,10.4h82.2c5.2,0 10.4-4.2 10.4-10.4v-243c0-6.2-5.2-10.4-10.4-10.4zm-10.4,243h-61.4v-222.1h61.4v222.1z"></path>
        <path d="M103.7,272.6H21.5c-6.2,0-10.4,5.2-10.4,10.4v207.6c0,6.3,5.2,10.4,10.4,10.4h82.2c5.2,0,10.4-4.2,10.4-10.4V283    C114.1,276.7,108.9,272.6,103.7,272.6z M93.3,480.1H31.9V293.4h61.4V480.1z"></path>
        <path d="m499.2,157.8l-103-142.9c-4.2-5.2-12.5-5.2-16.6,0l-103,142.9c-4.2,5.9-2.6,15.6 8.3,15.6h51v317.1c0,6.3 5.2,10.4 10.4,10.4h82.2c5.2,0 10.4-4.2 11.4-10.4v-317h51c10.2,0 12.4-10.4 8.3-15.7zm-70.8-5.2c-6.2,0-10.4,5.2-10.4,10.4v317.1h-61.4-1v-317.1c0-6.3-5.2-10.4-10.4-10.4h-41.6l83.2-114.7 83.2,114.7h-41.6z"></path>
      </g>
    </g>
  </symbol>
  <symbol version="1.1" id="menu" xmlns="http://www.w3.org/2000/svg" xmlns:xlink="http://www.w3.org/1999/xlink" x="0px" y="0px" xml:space="preserve" viewBox="0 0 384.97 384.97">
    <g>
      <g id="Menu">
        <path d="M12.03,84.212h360.909c6.641,0,12.03-5.39,12.03-12.03c0-6.641-5.39-12.03-12.03-12.03H12.03
			C5.39,60.152,0,65.541,0,72.182C0,78.823,5.39,84.212,12.03,84.212z"></path>
        <path d="M372.939,180.455H12.03c-6.641,0-12.03,5.39-12.03,12.03s5.39,12.03,12.03,12.03h360.909c6.641,0,12.03-5.39,12.03-12.03
			S379.58,180.455,372.939,180.455z"></path>
        <path d="M372.939,300.758H12.03c-6.641,0-12.03,5.39-12.03,12.03c0,6.641,5.39,12.03,12.03,12.03h360.909
			c6.641,0,12.03-5.39,12.03-12.03C384.97,306.147,379.58,300.758,372.939,300.758z"></path>
      </g>
      <g></g>
      <g></g>
      <g></g>
      <g></g>
      <g></g>
      <g></g>
    </g>
    <g></g>
    <g></g>
    <g></g>
    <g></g>
    <g></g>
    <g></g>
    <g></g>
    <g></g>
    <g></g>
    <g></g>
    <g></g>
    <g></g>
    <g></g>
    <g></g>
    <g></g>
  </symbol>
  <symbol xmlns="http://www.w3.org/2000/svg" viewBox="0 0 24 24" id="quotes">
    <g>
      <path fill="none" d="M0 0h24v24H0z"></path>
      <path d="M4.583 17.321C3.553 16.227 3 15 3 13.011c0-3.5 2.457-6.637 6.03-8.188l.893 1.378c-3.335 1.804-3.987 4.145-4.247 5.621.537-.278 1.24-.375 1.929-.311 1.804.167 3.226 1.648 3.226 3.489a3.5 3.5 0 0 1-3.5 3.5c-1.073 0-2.099-.49-2.748-1.179zm10 0C13.553 16.227 13 15 13 13.011c0-3.5 2.457-6.637 6.03-8.188l.893 1.378c-3.335 1.804-3.987 4.145-4.247 5.621.537-.278 1.24-.375 1.929-.311 1.804.167 3.226 1.648 3.226 3.489a3.5 3.5 0 0 1-3.5 3.5c-1.073 0-2.099-.49-2.748-1.179z"></path>
    </g>
  </symbol>
  <symbol version="1.1" id="unicorn" xmlns="http://www.w3.org/2000/svg" xmlns:xlink="http://www.w3.org/1999/xlink" x="0px" y="0px" xml:space="preserve" viewBox="0 0 465.029 465.029">
    <path d="M341.006,140.865c17.202-20.491,79.536-94.767,97.42-116.371c4.879-5.895,4.626-13.162-0.678-19.44
	c-0.271-0.321-0.569-0.619-0.891-0.891c-6.279-5.303-13.547-5.555-19.439-0.677c-21.607,17.886-95.892,80.23-116.37,97.42
	l-7.531-7.53l53.291-53.291c2.145-2.145,2.786-5.371,1.625-8.173c-1.16-2.803-3.896-4.63-6.929-4.63
	c-85.045,0-164.999,33.118-225.135,93.254s-93.254,140.09-93.254,225.135c0,11.571,0.626,23.127,1.865,34.592
	c0.006,0.073,0.014,0.146,0.022,0.219c1.269,11.664,3.173,23.232,5.706,34.621c0.777,3.495,3.876,5.873,7.314,5.873
	c0.539,0,1.087-0.059,1.635-0.18c4.044-0.899,6.593-4.906,5.693-8.95c-1.799-8.086-3.265-16.268-4.396-24.511
	c34.444,1.829,57.782,14.669,84.481,29.376c39.082,21.526,87.721,48.317,188.619,48.317c4.143,0,7.5-3.358,7.5-7.5
	c0-38.308-18.206-63.911-37.48-91.018c-16.333-22.969-33.222-46.72-39.647-80.251c-0.779-4.068-4.709-6.736-8.777-5.955
	c-4.068,0.78-6.734,4.709-5.955,8.778c7.041,36.739,25.696,62.974,42.155,86.121c17.188,24.173,32.214,45.302,34.426,74.771
	c-91.69-1.282-135.141-25.217-173.603-46.402c-27.797-15.311-54.144-29.81-93.401-31.329c-0.766-8.823-1.158-17.693-1.158-26.572
	c0-161.02,126.086-293.144,284.714-302.82l-45.223,45.222c-2.929,2.929-2.929,7.678,0,10.606l25.612,25.612
	c2.93,2.929,7.678,2.929,10.607,0c2.929-2.929,2.929-7.678,0-10.606l-2.132-2.132c21.565-18.103,92.617-77.728,114.637-95.973
	C404.838,41.523,325.9,135.53,325.098,136.485c-2.502,2.979-2.311,7.376,0.439,10.126l92.64,92.639
	c3.655,3.656,5.669,8.517,5.669,13.687c0,5.17-2.014,10.031-5.669,13.687c-7.549,7.548-19.827,7.546-27.376,0
	c-0.994-0.995-2.248-1.689-3.618-2.005l-86.192-19.863c-1.761-0.405-3.61-0.162-5.208,0.688
	c-28.493,15.165-62.989,10.006-85.835-12.839c-23.148-23.148-28.035-59.168-11.883-87.594c2.047-3.602,0.786-8.18-2.815-10.227
	s-8.18-0.785-10.226,2.816c-19.478,34.276-13.589,77.706,14.317,105.611c13.591,13.59,30.807,22.194,49.788,24.882
	c17.399,2.462,35.449-0.414,51.153-8.106l81.571,18.797c6.456,5.662,14.546,8.493,22.635,8.493c8.799,0,17.597-3.349,24.295-10.046
	c6.489-6.489,10.063-15.117,10.063-24.294c0-9.177-3.574-17.805-10.063-24.293L341.006,140.865z"></path>
    <g></g>
    <g></g>
    <g></g>
    <g></g>
    <g></g>
    <g></g>
    <g></g>
    <g></g>
    <g></g>
    <g></g>
    <g></g>
    <g></g>
    <g></g>
    <g></g>
    <g></g>
  </symbol>
  <symbol xmlns="http://www.w3.org/2000/svg" viewBox="0 0 24 24" id="wordpress">
    <path d="M19.891 7.788a8.966 8.966 0 0 1 1.099 4.313 8.986 8.986 0 0 1-4.47 7.771l2.746-7.939c.513-1.282.684-2.309.684-3.219a7.165 7.165 0 0 0-.059-.926m-6.651.087a14.14 14.14 0 0 0 1.026-.088c.485-.063.428-.775-.056-.749 0 0-1.463.112-2.4.112-.887 0-2.375-.125-2.375-.125-.487-.024-.55.713-.061.738 0 0 .449.052.938.075l1.399 3.838-1.975 5.899-3.274-9.724a17.006 17.006 0 0 0 1.028-.083c.487-.063.43-.775-.055-.747 0 0-1.455.115-2.395.115-.167 0-.365-.007-.575-.013C6.093 4.726 8.862 3.113 12 3.113c2.341 0 4.471.894 6.071 2.36-.038-.002-.076-.008-.117-.008-.883 0-1.51.77-1.51 1.596 0 .741.427 1.369.883 2.108.343.601.742 1.37.742 2.481 0 .763-.295 1.662-.685 2.899l-.896 2.987-3.25-9.675.002.014zM12 21.087a8.983 8.983 0 0 1-2.54-.364l2.697-7.838 2.763 7.572c.021.044.042.085.065.124a9.016 9.016 0 0 1-2.985.508m-8.99-8.988a8.94 8.94 0 0 1 .778-3.658l4.287 11.749a8.993 8.993 0 0 1-5.065-8.091m8.99-10c-5.513 0-10 4.487-10 10s4.487 10 10 10 10-4.487 10-10-4.487-10-10-10"></path>
  </symbol>
</svg>